<?xml version="1.0" encoding="utf-8"?>
<!-- Generator: Adobe Illustrator 21.0.2, SVG Export Plug-In . SVG Version: 6.00 Build 0)  -->
<svg version="1.1" id="Layer_1" xmlns="http://www.w3.org/2000/svg" xmlns:xlink="http://www.w3.org/1999/xlink" x="0px" y="0px"
	 viewBox="0 0 464.2 148.3" style="enable-background:new 0 0 464.2 148.3;" xml:space="preserve">
<style type="text/css">
	.st0{fill:#003E6A;}
	.st1{fill:#FFFFFF;}
</style>
<rect x="1.9" y="18" class="st0" width="76.2" height="128.5"/>
<polygon class="st0" points="120.1,0.2 127.7,7.2 129.9,22.5 66.1,46.7 66.6,42.2 121.8,18 "/>
<polygon class="st0" points="118.3,33 122.3,36 120.9,39.3 114,41 "/>
<polygon class="st1" points="1,59.8 14,52.1 5.5,23.4 21.2,17.1 28.4,44 120,0 121.8,18 31.1,58.4 51.3,146.9 40.5,148.3 18.1,63.8 
	0,72.4 "/>
<polygon class="st0" points="123.1,110.1 55.6,117.4 43.8,66.8 122.3,36 "/>
<polygon class="st1" points="119,107.1 51.5,114.5 39.8,63.8 118.3,33 "/>
<g>
	<polygon class="st0" points="77.6,58.3 65.2,79 77.6,99.9 90.1,79 	"/>
	<polygon class="st0" points="80.3,54 78.7,56.6 92.1,79 78.6,101.5 80,103.9 95,79 	"/>
	<polygon class="st0" points="82.8,49.7 81.3,52.3 97.2,79 81,105.7 82.5,108.2 100.2,79 	"/>
</g>
<g>
	<path class="st0" d="M207.8,40.7c-1.5-1.9-3.3-3.6-5.3-5c-2-1.5-4.2-2.8-6.5-3.9c-2.3-1.1-4.7-2-7.2-2.6c-2.5-0.6-4.9-0.9-7.3-0.9
		c-4.9,0-9.5,1-13.9,2.9c-4.3,1.9-8.1,4.6-11.4,7.9c-3.3,3.3-5.8,7.2-7.7,11.6c-1.9,4.4-2.8,9-2.8,13.8c0,4.6,0.9,9,2.8,13.1
		c1.8,4.2,4.4,7.9,7.8,11.1c3.3,3.1,7.2,5.7,11.6,7.8c4.4,2.1,8.9,3.1,13.6,3.1c2.3,0,4.7-0.3,7.1-0.9c2.5-0.6,4.9-1.4,7.2-2.4
		c2.4-1,4.6-2.3,6.7-3.7c2.1-1.5,3.9-3.1,5.3-4.9v6.9c-3.8,3.1-7.8,5.5-12.2,7.2c-4.4,1.7-9,2.6-13.9,2.6c-5.5,0-10.7-1.1-15.6-3.2
		c-4.9-2.1-9.3-5-13-8.6c-3.8-3.6-6.7-7.9-9-12.8c-2.2-4.9-3.3-10.1-3.3-15.6c0-5.6,1.1-10.8,3.3-15.7c2.2-4.9,5.2-9.2,8.9-12.9
		c3.8-3.6,8.1-6.5,13.1-8.6c5-2.1,10.2-3.2,15.8-3.2c4.8,0,9.4,0.9,14,2.7c4.5,1.8,8.5,4.3,12.1,7.6V40.7z"/>
	<path class="st0" d="M261.6,24.7h5v49c0,2,0,4-0.1,5.8c-0.1,1.9-0.3,3.7-0.6,5.5c-0.3,1.8-0.8,3.5-1.6,5.2c-0.7,1.7-1.8,3.3-3.1,5
		c-2.6,3.1-5.9,5.4-9.7,6.9c-3.8,1.5-7.7,2.3-11.7,2.3c-4,0-7.8-0.8-11.7-2.3c-3.8-1.5-7.1-3.8-9.7-6.9c-1.3-1.7-2.3-3.3-3.1-5
		c-0.7-1.7-1.2-3.4-1.6-5.2c-0.3-1.8-0.5-3.6-0.6-5.5c-0.1-1.9-0.1-3.8-0.1-5.8v-49h5v47.5c0,1.8,0,3.6,0.1,5.4
		c0,1.8,0.2,3.5,0.5,5.2c0.3,1.7,0.7,3.3,1.2,4.9c0.5,1.6,1.3,3,2.3,4.3c1,1.2,2.2,2.3,3.5,3.3c1.4,0.9,2.9,1.7,4.4,2.4
		c1.6,0.7,3.2,1.1,4.8,1.5c1.7,0.3,3.3,0.5,4.8,0.5c1.5,0,3.1-0.2,4.8-0.5c1.7-0.3,3.3-0.8,4.8-1.5c1.6-0.7,3-1.5,4.4-2.4
		c1.4-0.9,2.6-2,3.5-3.3c1-1.3,1.8-2.8,2.3-4.3c0.5-1.6,0.9-3.2,1.2-4.9c0.3-1.7,0.4-3.4,0.5-5.2c0-1.8,0.1-3.6,0.1-5.4V24.7z"/>
	<path class="st0" d="M298.9,103.2h-5V29.3h-20.3v-4.7h45.6v4.7h-20.3V103.2z"/>
	<path class="st0" d="M382.7,40.7c-1.5-1.9-3.3-3.6-5.3-5c-2-1.5-4.2-2.8-6.5-3.9c-2.3-1.1-4.7-2-7.2-2.6c-2.5-0.6-4.9-0.9-7.3-0.9
		c-4.9,0-9.5,1-13.9,2.9c-4.3,1.9-8.1,4.6-11.4,7.9c-3.3,3.3-5.8,7.2-7.7,11.6c-1.9,4.4-2.8,9-2.8,13.8c0,4.6,0.9,9,2.8,13.1
		c1.8,4.2,4.4,7.9,7.8,11.1c3.3,3.1,7.2,5.7,11.6,7.8c4.4,2.1,8.9,3.1,13.6,3.1c2.3,0,4.7-0.3,7.1-0.9c2.5-0.6,4.9-1.4,7.2-2.4
		c2.4-1,4.6-2.3,6.7-3.7c2.1-1.5,3.9-3.1,5.3-4.9v6.9c-3.7,3.1-7.8,5.5-12.2,7.2c-4.4,1.7-9,2.6-13.9,2.6c-5.5,0-10.7-1.1-15.6-3.2
		c-4.9-2.1-9.3-5-13-8.6c-3.7-3.6-6.7-7.9-9-12.8c-2.2-4.9-3.3-10.1-3.3-15.6c0-5.6,1.1-10.8,3.3-15.7c2.2-4.9,5.2-9.2,8.9-12.9
		c3.8-3.6,8.1-6.5,13.1-8.6c5-2.1,10.2-3.2,15.8-3.2c4.8,0,9.4,0.9,14,2.7c4.5,1.8,8.5,4.3,12.1,7.6V40.7z"/>
	<path class="st0" d="M423.5,23.6c5.5,0,10.7,1.1,15.7,3.2c5,2.1,9.3,5,13,8.7c3.7,3.7,6.6,8,8.8,12.9c2.2,4.9,3.3,10.1,3.3,15.6
		c0,5.6-1.1,10.8-3.3,15.6c-2.2,4.9-5.1,9.1-8.8,12.8c-3.7,3.7-8,6.6-13,8.7c-5,2.1-10.2,3.2-15.7,3.2c-5.6,0-10.8-1.1-15.7-3.2
		c-4.9-2.1-9.2-5-12.9-8.7c-3.7-3.7-6.6-8-8.8-12.8c-2.2-4.9-3.3-10.1-3.3-15.6c0-5.5,1.1-10.7,3.2-15.6c2.2-4.9,5.1-9.2,8.8-12.9
		c3.7-3.7,8-6.6,13-8.7C412.7,24.7,417.9,23.6,423.5,23.6z M423.5,28.3c-4.9,0-9.6,1-13.9,2.9c-4.3,1.9-8.1,4.5-11.4,7.7
		c-3.3,3.2-5.8,7-7.7,11.3c-1.9,4.3-2.8,8.9-2.8,13.8c0,4.9,0.9,9.4,2.8,13.7c1.9,4.3,4.4,8.1,7.7,11.3c3.3,3.2,7.1,5.8,11.4,7.7
		c4.3,1.9,8.9,2.9,13.9,2.9c4.9,0,9.5-0.9,13.8-2.9c4.3-1.9,8.1-4.5,11.4-7.7c3.2-3.2,5.8-7,7.7-11.4c1.9-4.3,2.9-8.9,2.9-13.7
		c0-4.9-1-9.4-2.9-13.8c-1.9-4.3-4.5-8.1-7.7-11.3c-3.2-3.2-7-5.8-11.4-7.7C432.9,29.3,428.3,28.3,423.5,28.3z"/>
	<path class="st0" d="M167.4,124.1c-0.5-0.6-1.1-1.2-1.8-1.7c-0.7-0.5-1.4-0.9-2.2-1.3c-0.8-0.4-1.6-0.7-2.4-0.9
		c-0.8-0.2-1.6-0.3-2.4-0.3c-1.6,0-3.2,0.3-4.6,1c-1.4,0.6-2.7,1.5-3.8,2.6c-1.1,1.1-1.9,2.4-2.6,3.9c-0.6,1.5-0.9,3-0.9,4.6
		c0,1.5,0.3,3,0.9,4.4c0.6,1.4,1.5,2.6,2.6,3.7c1.1,1,2.4,1.9,3.9,2.6c1.5,0.7,3,1,4.5,1c0.8,0,1.6-0.1,2.4-0.3
		c0.8-0.2,1.6-0.5,2.4-0.8c0.8-0.3,1.5-0.8,2.2-1.2c0.7-0.5,1.3-1,1.8-1.6v2.3c-1.2,1-2.6,1.8-4.1,2.4c-1.5,0.6-3,0.8-4.6,0.8
		c-1.8,0-3.6-0.3-5.2-1.1c-1.6-0.7-3.1-1.7-4.3-2.9c-1.2-1.2-2.2-2.6-3-4.3c-0.7-1.6-1.1-3.4-1.1-5.2c0-1.9,0.4-3.6,1.1-5.2
		c0.7-1.6,1.7-3.1,3-4.3c1.3-1.2,2.7-2.2,4.4-2.9c1.7-0.7,3.4-1.1,5.3-1.1c1.6,0,3.2,0.3,4.7,0.9c1.5,0.6,2.8,1.4,4,2.5V124.1z"/>
	<path class="st0" d="M178.5,143.3h6.7v1.6h-8.3v-26.2h1.7V143.3z"/>
	<path class="st0" d="M208.2,118.4c1.8,0,3.6,0.4,5.2,1.1c1.7,0.7,3.1,1.7,4.3,2.9c1.2,1.2,2.2,2.7,2.9,4.3c0.7,1.6,1.1,3.4,1.1,5.2
		c0,1.9-0.4,3.6-1.1,5.2c-0.7,1.6-1.7,3-2.9,4.3c-1.2,1.2-2.7,2.2-4.3,2.9c-1.7,0.7-3.4,1.1-5.2,1.1c-1.9,0-3.6-0.3-5.2-1.1
		c-1.6-0.7-3.1-1.7-4.3-2.9c-1.2-1.2-2.2-2.6-2.9-4.3c-0.7-1.6-1.1-3.4-1.1-5.2c0-1.8,0.4-3.6,1.1-5.2c0.7-1.6,1.7-3.1,2.9-4.3
		c1.2-1.2,2.7-2.2,4.3-2.9C204.6,118.7,206.3,118.4,208.2,118.4z M208.2,119.9c-1.6,0-3.2,0.3-4.6,1c-1.4,0.6-2.7,1.5-3.8,2.6
		c-1.1,1.1-1.9,2.3-2.6,3.8c-0.6,1.4-0.9,3-0.9,4.6c0,1.6,0.3,3.1,0.9,4.6c0.6,1.4,1.5,2.7,2.6,3.8c1.1,1.1,2.4,1.9,3.8,2.6
		c1.4,0.6,3,1,4.6,1c1.6,0,3.2-0.3,4.6-1c1.4-0.6,2.7-1.5,3.8-2.6c1.1-1.1,1.9-2.3,2.6-3.8c0.6-1.4,1-3,1-4.6c0-1.6-0.3-3.1-1-4.6
		c-0.6-1.4-1.5-2.7-2.6-3.8c-1.1-1.1-2.3-1.9-3.8-2.6C211.3,120.2,209.8,119.9,208.2,119.9z"/>
	<path class="st0" d="M244.6,123c-0.6-0.9-1.3-1.7-2.2-2.3c-0.8-0.6-1.9-0.8-3.1-0.8c-0.7,0-1.3,0.1-1.9,0.4
		c-0.6,0.3-1.1,0.6-1.6,1.1c-0.4,0.5-0.8,1-1,1.6c-0.3,0.6-0.4,1.3-0.4,1.9c0,0.7,0.1,1.3,0.4,1.8c0.3,0.5,0.7,0.9,1.1,1.3
		c0.5,0.4,1,0.7,1.5,1c0.6,0.3,1.1,0.5,1.6,0.8l5,2.6c1,0.6,1.7,1.4,2.2,2.2c0.5,0.8,0.7,1.8,0.7,3c0,1.1-0.2,2.1-0.7,3
		c-0.4,0.9-1.1,1.7-1.8,2.4c-0.8,0.7-1.6,1.2-2.6,1.6c-1,0.4-2,0.6-3.1,0.6c-1.8,0-3.4-0.5-4.8-1.5c-1.4-1-2.3-2.4-2.9-4.1l1.5-0.7
		c0.6,1.4,1.4,2.5,2.4,3.4c1,0.9,2.3,1.3,3.9,1.3c0.9,0,1.7-0.2,2.5-0.5c0.8-0.3,1.5-0.8,2.1-1.3c0.6-0.6,1.1-1.2,1.4-2
		c0.4-0.7,0.5-1.6,0.5-2.4c0-0.7-0.2-1.4-0.5-1.9c-0.3-0.5-0.8-1-1.3-1.4c-0.5-0.4-1.1-0.8-1.7-1.1c-0.6-0.3-1.2-0.6-1.8-0.9
		l-4.7-2.5c-0.9-0.5-1.5-1.2-2-2c-0.5-0.8-0.7-1.7-0.7-2.7c0-1,0.2-1.9,0.5-2.7c0.3-0.8,0.8-1.5,1.4-2.1c0.6-0.6,1.3-1,2.1-1.4
		c0.8-0.3,1.7-0.5,2.7-0.5c1.3,0,2.6,0.3,3.7,1c1.2,0.7,2.1,1.6,2.7,2.7L244.6,123z"/>
	<path class="st0" d="M258.2,144.9h-1.7v-26.2h1.7V144.9z"/>
	<path class="st0" d="M291.3,145.8l-22-23.4v22.5h-1.7v-26.5l22,23.2v-22.9h1.7V145.8z"/>
	<path class="st0" d="M326.8,132.3c0,0.8,0,1.6-0.1,2.4c-0.1,0.8-0.2,1.5-0.4,2.2c-0.2,0.7-0.5,1.4-0.8,2.1c-0.4,0.7-0.8,1.3-1.4,2
		c-1.3,1.4-2.8,2.4-4.5,3.1c-1.8,0.7-3.6,1.1-5.4,1.1c-1.8,0-3.5-0.3-5.2-1.1c-1.6-0.7-3.1-1.7-4.3-2.9c-1.2-1.2-2.2-2.6-2.9-4.3
		c-0.7-1.6-1.1-3.3-1.1-5.1c0-1.9,0.4-3.6,1.1-5.3c0.7-1.6,1.7-3.1,2.9-4.3c1.2-1.2,2.7-2.2,4.3-2.9c1.7-0.7,3.4-1.1,5.3-1.1
		c2.4,0,4.5,0.5,6.4,1.7c1.9,1.1,3.5,2.6,4.9,4.5l-1.4,1.1c-1.2-1.7-2.6-3.1-4.3-4.1c-1.7-1-3.6-1.5-5.8-1.5c-1.6,0-3.1,0.3-4.5,1
		c-1.4,0.6-2.7,1.5-3.8,2.6c-1.1,1.1-2,2.3-2.6,3.8c-0.6,1.4-1,2.9-1,4.5c0,1.6,0.3,3.1,0.9,4.6c0.6,1.4,1.5,2.7,2.6,3.8
		c1.1,1.1,2.3,1.9,3.8,2.6c1.4,0.6,3,1,4.6,1c1.4,0,2.8-0.3,4.1-0.8c1.3-0.5,2.5-1.2,3.6-2.1c1.1-1,1.9-2,2.4-3.1
		c0.5-1.1,0.7-2.4,0.8-3.8h-9.4v-1.6H326.8z"/>
	<path class="st0" d="M377,132.3c0,0.8,0,1.6-0.1,2.4c-0.1,0.8-0.2,1.5-0.4,2.2c-0.2,0.7-0.5,1.4-0.8,2.1c-0.4,0.7-0.8,1.3-1.4,2
		c-1.3,1.4-2.8,2.4-4.5,3.1c-1.8,0.7-3.6,1.1-5.4,1.1c-1.8,0-3.5-0.3-5.2-1.1c-1.6-0.7-3.1-1.7-4.3-2.9c-1.2-1.2-2.2-2.6-2.9-4.3
		c-0.7-1.6-1.1-3.3-1.1-5.1c0-1.9,0.4-3.6,1.1-5.3c0.7-1.6,1.7-3.1,2.9-4.3c1.2-1.2,2.7-2.2,4.3-2.9c1.7-0.7,3.4-1.1,5.3-1.1
		c2.4,0,4.5,0.5,6.4,1.7c1.9,1.1,3.5,2.6,4.9,4.5l-1.4,1.1c-1.2-1.7-2.6-3.1-4.3-4.1c-1.7-1-3.6-1.5-5.8-1.5c-1.6,0-3.1,0.3-4.5,1
		c-1.4,0.6-2.7,1.5-3.8,2.6c-1.1,1.1-1.9,2.3-2.6,3.8c-0.6,1.4-1,2.9-1,4.5c0,1.6,0.3,3.1,0.9,4.6c0.6,1.4,1.5,2.7,2.6,3.8
		c1.1,1.1,2.3,1.9,3.8,2.6c1.4,0.6,3,1,4.6,1c1.4,0,2.8-0.3,4.1-0.8c1.3-0.5,2.5-1.2,3.6-2.1c1.1-1,1.9-2,2.4-3.1
		c0.5-1.1,0.7-2.4,0.8-3.8h-9.4v-1.6H377z"/>
	<path class="st0" d="M387.9,144.9h-1.7v-26.2h1.7V144.9z"/>
	<path class="st0" d="M398.8,120.3v9.5h8.6v1.6h-8.6v13.5h-1.7v-26.2h10.6v1.6H398.8z"/>
	<path class="st0" d="M425.4,144.9h-1.7v-24.6H417v-1.6h15.2v1.6h-6.8V144.9z"/>
	<path class="st0" d="M454.9,123c-0.6-0.9-1.3-1.7-2.2-2.3s-1.9-0.8-3.1-0.8c-0.7,0-1.3,0.1-1.9,0.4c-0.6,0.3-1.1,0.6-1.6,1.1
		c-0.4,0.5-0.8,1-1,1.6c-0.3,0.6-0.4,1.3-0.4,1.9c0,0.7,0.1,1.3,0.4,1.8c0.3,0.5,0.7,0.9,1.1,1.3c0.5,0.4,1,0.7,1.5,1
		c0.6,0.3,1.1,0.5,1.6,0.8l5,2.6c1,0.6,1.7,1.4,2.2,2.2c0.5,0.8,0.7,1.8,0.7,3c0,1.1-0.2,2.1-0.7,3c-0.4,0.9-1.1,1.7-1.8,2.4
		c-0.8,0.7-1.6,1.2-2.6,1.6c-1,0.4-2,0.6-3.1,0.6c-1.8,0-3.4-0.5-4.8-1.5c-1.4-1-2.3-2.4-2.9-4.1l1.5-0.7c0.6,1.4,1.3,2.5,2.4,3.4
		c1,0.9,2.3,1.3,3.9,1.3c0.8,0,1.7-0.2,2.5-0.5c0.8-0.3,1.5-0.8,2.1-1.3c0.6-0.6,1.1-1.2,1.4-2c0.4-0.7,0.5-1.6,0.5-2.4
		c0-0.7-0.2-1.4-0.5-1.9c-0.3-0.5-0.8-1-1.3-1.4c-0.5-0.4-1.1-0.8-1.7-1.1c-0.6-0.3-1.2-0.6-1.8-0.9l-4.7-2.5c-0.9-0.5-1.6-1.2-2-2
		c-0.5-0.8-0.7-1.7-0.7-2.7c0-1,0.2-1.9,0.5-2.7c0.3-0.8,0.8-1.5,1.4-2.1c0.6-0.6,1.3-1,2.1-1.4c0.8-0.3,1.7-0.5,2.7-0.5
		c1.3,0,2.6,0.3,3.7,1c1.2,0.7,2.1,1.6,2.7,2.7L454.9,123z"/>
</g>
</svg>
